<svg width="70" height="69" viewBox="0 0 70 69" fill="none" xmlns="http://www.w3.org/2000/svg">
<g filter="url(#filter0_d_2549_20796)">
<g clip-path="url(#clip0_2549_20796)">
<rect x="4.6709" y="1.9541" width="61.0448" height="61.0448" rx="13.3535" fill="url(#paint0_linear_2549_20796)"/>
<path fill-rule="evenodd" clip-rule="evenodd" d="M46.1839 31.3911C46.1839 32.7765 45.9732 34.1129 45.573 35.3516C46.8132 35.7411 47.7113 36.8988 47.7113 38.2658V47.4331H23.2734V44.3783C23.2732 43.977 23.3521 43.5797 23.5055 43.2089C23.659 42.8381 23.8839 42.5011 24.1676 42.2173C24.4513 41.9335 24.7881 41.7084 25.1588 41.5547C25.5295 41.4011 25.9269 41.3221 26.3282 41.3221H27.8555V36.7644L24.2998 34.7116L25.0635 33.3889L32.9997 37.9726L32.236 39.2968L29.3829 37.6472V41.3236H35.4924L37.0197 35.2096H44.0151C44.4461 33.9829 44.663 32.6913 44.6566 31.3911C44.6566 28.6144 43.7142 26.334 42.1288 24.7502C41.4231 24.043 40.5495 23.5008 39.5842 23.0762L38.3394 25.2343L37.0167 24.4706L39.3077 20.4995L36.6623 18.9706L34.3728 22.9417L33.0526 22.1804L28.4665 30.1172L27.1438 29.3535L31.732 21.4158L33.0491 22.1772L36.1064 16.8857L41.3956 19.9405L40.3692 21.7168C41.425 22.1929 42.3871 22.854 43.2101 23.6688C45.1148 25.5734 46.1839 28.26 46.1839 31.3911ZM24.8008 44.3783V45.9057H46.1839V38.2658C46.1839 37.8607 46.023 37.4722 45.7366 37.1858C45.4501 36.8994 45.0616 36.7384 44.6566 36.7384H38.2111L36.6837 42.851H26.3282C25.9231 42.851 25.5346 43.0119 25.2482 43.2983C24.9617 43.5848 24.8008 43.9732 24.8008 44.3783Z" fill="#08312A"/>
<path d="M28.4665 30.1172L27.7028 31.4415L32.9951 34.4962L33.7588 33.175L28.4665 30.1172Z" fill="#08312A"/>
<path d="M38.3455 25.2373L33.7573 33.1735L35.0784 33.9372L39.6667 26.001L38.3455 25.2373Z" fill="#08312A"/>
</g>
</g>
<defs>
<filter id="filter0_d_2549_20796" x="0.855601" y="0.0464528" width="68.6755" height="68.6755" filterUnits="userSpaceOnUse" color-interpolation-filters="sRGB">
<feFlood flood-opacity="0" result="BackgroundImageFix"/>
<feColorMatrix in="SourceAlpha" type="matrix" values="0 0 0 0 0 0 0 0 0 0 0 0 0 0 0 0 0 0 127 0" result="hardAlpha"/>
<feOffset dy="1.90765"/>
<feGaussianBlur stdDeviation="1.90765"/>
<feColorMatrix type="matrix" values="0 0 0 0 0.0627451 0 0 0 0 0.0941176 0 0 0 0 0.156863 0 0 0 0.05 0"/>
<feBlend mode="normal" in2="BackgroundImageFix" result="effect1_dropShadow_2549_20796"/>
<feBlend mode="normal" in="SourceGraphic" in2="effect1_dropShadow_2549_20796" result="shape"/>
</filter>
<linearGradient id="paint0_linear_2549_20796" x1="35.1933" y1="1.9541" x2="35.1933" y2="62.9989" gradientUnits="userSpaceOnUse">
<stop stop-color="#F5F5FF"/>
<stop offset="1" stop-color="#E1E1FE"/>
</linearGradient>
<clipPath id="clip0_2549_20796">
<rect x="4.6709" y="1.9541" width="61.0448" height="61.0448" rx="13.3535" fill="white"/>
</clipPath>
</defs>
</svg>
